<mxfile host="app.diagrams.net" modified="2022-07-22T03:12:11.362Z" agent="5.0 (Macintosh; Intel Mac OS X 10_15_7) AppleWebKit/537.36 (KHTML, like Gecko) Chrome/103.0.0.0 Safari/537.36" etag="s0wY9cEmdIW03-yM66h2" version="20.1.4" type="github">
  <diagram id="oFoDBeGjAl3_mBjDxXdZ" name="第 1 页">
    <mxGraphModel dx="946" dy="589" grid="1" gridSize="10" guides="1" tooltips="1" connect="1" arrows="1" fold="1" page="1" pageScale="1" pageWidth="827" pageHeight="1169" math="0" shadow="0">
      <root>
        <mxCell id="0" />
        <mxCell id="1" parent="0" />
        <mxCell id="3TlZWHV6sP-muTXf7egh-3" value="" style="edgeStyle=orthogonalEdgeStyle;rounded=0;orthogonalLoop=1;jettySize=auto;html=1;" edge="1" parent="1" source="3TlZWHV6sP-muTXf7egh-1" target="3TlZWHV6sP-muTXf7egh-2">
          <mxGeometry relative="1" as="geometry" />
        </mxCell>
        <mxCell id="3TlZWHV6sP-muTXf7egh-1" value="require语句" style="rounded=1;whiteSpace=wrap;html=1;" vertex="1" parent="1">
          <mxGeometry x="350" y="230" width="120" height="60" as="geometry" />
        </mxCell>
        <mxCell id="3TlZWHV6sP-muTXf7egh-5" value="" style="edgeStyle=orthogonalEdgeStyle;rounded=0;orthogonalLoop=1;jettySize=auto;html=1;" edge="1" parent="1" source="3TlZWHV6sP-muTXf7egh-2" target="3TlZWHV6sP-muTXf7egh-4">
          <mxGeometry relative="1" as="geometry" />
        </mxCell>
        <mxCell id="3TlZWHV6sP-muTXf7egh-10" value="" style="edgeStyle=orthogonalEdgeStyle;rounded=0;orthogonalLoop=1;jettySize=auto;html=1;" edge="1" parent="1" source="3TlZWHV6sP-muTXf7egh-2" target="3TlZWHV6sP-muTXf7egh-9">
          <mxGeometry relative="1" as="geometry" />
        </mxCell>
        <mxCell id="3TlZWHV6sP-muTXf7egh-2" value="是核心模块吗" style="rhombus;whiteSpace=wrap;html=1;rounded=1;" vertex="1" parent="1">
          <mxGeometry x="355" y="320" width="110" height="80" as="geometry" />
        </mxCell>
        <mxCell id="3TlZWHV6sP-muTXf7egh-4" value="返回模块" style="whiteSpace=wrap;html=1;rounded=1;" vertex="1" parent="1">
          <mxGeometry x="510" y="330" width="120" height="60" as="geometry" />
        </mxCell>
        <mxCell id="3TlZWHV6sP-muTXf7egh-8" value="是" style="text;html=1;strokeColor=none;fillColor=none;align=center;verticalAlign=middle;whiteSpace=wrap;rounded=0;" vertex="1" parent="1">
          <mxGeometry x="440" y="360" width="60" height="30" as="geometry" />
        </mxCell>
        <mxCell id="3TlZWHV6sP-muTXf7egh-13" value="" style="edgeStyle=orthogonalEdgeStyle;rounded=0;orthogonalLoop=1;jettySize=auto;html=1;" edge="1" parent="1" source="3TlZWHV6sP-muTXf7egh-9" target="3TlZWHV6sP-muTXf7egh-12">
          <mxGeometry relative="1" as="geometry" />
        </mxCell>
        <mxCell id="3TlZWHV6sP-muTXf7egh-20" value="" style="edgeStyle=orthogonalEdgeStyle;rounded=0;orthogonalLoop=1;jettySize=auto;html=1;" edge="1" parent="1" source="3TlZWHV6sP-muTXf7egh-9" target="3TlZWHV6sP-muTXf7egh-19">
          <mxGeometry relative="1" as="geometry" />
        </mxCell>
        <mxCell id="3TlZWHV6sP-muTXf7egh-9" value="以‘/’, &#39;./&#39;, &#39;../&#39;开头" style="rhombus;whiteSpace=wrap;html=1;rounded=1;" vertex="1" parent="1">
          <mxGeometry x="350" y="440" width="120" height="80" as="geometry" />
        </mxCell>
        <mxCell id="3TlZWHV6sP-muTXf7egh-11" value="否" style="text;html=1;strokeColor=none;fillColor=none;align=center;verticalAlign=middle;whiteSpace=wrap;rounded=0;" vertex="1" parent="1">
          <mxGeometry x="400" y="400" width="60" height="30" as="geometry" />
        </mxCell>
        <mxCell id="3TlZWHV6sP-muTXf7egh-17" style="edgeStyle=orthogonalEdgeStyle;rounded=0;orthogonalLoop=1;jettySize=auto;html=1;exitX=1;exitY=0.5;exitDx=0;exitDy=0;entryX=1;entryY=0.5;entryDx=0;entryDy=0;" edge="1" parent="1" source="3TlZWHV6sP-muTXf7egh-12" target="3TlZWHV6sP-muTXf7egh-4">
          <mxGeometry relative="1" as="geometry" />
        </mxCell>
        <mxCell id="3TlZWHV6sP-muTXf7egh-12" value="根据路径在当前文件下查找" style="whiteSpace=wrap;html=1;rounded=1;" vertex="1" parent="1">
          <mxGeometry x="510" y="450" width="120" height="60" as="geometry" />
        </mxCell>
        <mxCell id="3TlZWHV6sP-muTXf7egh-14" value="是" style="text;html=1;strokeColor=none;fillColor=none;align=center;verticalAlign=middle;whiteSpace=wrap;rounded=0;" vertex="1" parent="1">
          <mxGeometry x="450" y="450" width="60" height="30" as="geometry" />
        </mxCell>
        <mxCell id="3TlZWHV6sP-muTXf7egh-18" value="查找到模块" style="text;html=1;strokeColor=none;fillColor=none;align=center;verticalAlign=middle;whiteSpace=wrap;rounded=0;" vertex="1" parent="1">
          <mxGeometry x="660" y="410" width="60" height="30" as="geometry" />
        </mxCell>
        <mxCell id="3TlZWHV6sP-muTXf7egh-22" style="edgeStyle=orthogonalEdgeStyle;rounded=0;orthogonalLoop=1;jettySize=auto;html=1;exitX=1;exitY=0.5;exitDx=0;exitDy=0;entryX=1;entryY=0.5;entryDx=0;entryDy=0;" edge="1" parent="1" source="3TlZWHV6sP-muTXf7egh-19" target="3TlZWHV6sP-muTXf7egh-4">
          <mxGeometry relative="1" as="geometry" />
        </mxCell>
        <mxCell id="3TlZWHV6sP-muTXf7egh-26" value="" style="edgeStyle=orthogonalEdgeStyle;rounded=0;orthogonalLoop=1;jettySize=auto;html=1;" edge="1" parent="1" source="3TlZWHV6sP-muTXf7egh-19" target="3TlZWHV6sP-muTXf7egh-25">
          <mxGeometry relative="1" as="geometry" />
        </mxCell>
        <mxCell id="3TlZWHV6sP-muTXf7egh-19" value="在当前模块下的node_modules下吗" style="rhombus;whiteSpace=wrap;html=1;rounded=1;" vertex="1" parent="1">
          <mxGeometry x="340" y="560" width="140" height="80" as="geometry" />
        </mxCell>
        <mxCell id="3TlZWHV6sP-muTXf7egh-23" value="在" style="text;html=1;strokeColor=none;fillColor=none;align=center;verticalAlign=middle;whiteSpace=wrap;rounded=0;" vertex="1" parent="1">
          <mxGeometry x="480" y="570" width="55" height="30" as="geometry" />
        </mxCell>
        <mxCell id="3TlZWHV6sP-muTXf7egh-29" value="" style="edgeStyle=orthogonalEdgeStyle;rounded=0;orthogonalLoop=1;jettySize=auto;html=1;" edge="1" parent="1" source="3TlZWHV6sP-muTXf7egh-25" target="3TlZWHV6sP-muTXf7egh-28">
          <mxGeometry relative="1" as="geometry" />
        </mxCell>
        <mxCell id="3TlZWHV6sP-muTXf7egh-25" value="尝试进去父目录" style="whiteSpace=wrap;html=1;rounded=1;" vertex="1" parent="1">
          <mxGeometry x="350" y="690" width="120" height="40" as="geometry" />
        </mxCell>
        <mxCell id="3TlZWHV6sP-muTXf7egh-27" value="否" style="text;html=1;strokeColor=none;fillColor=none;align=center;verticalAlign=middle;whiteSpace=wrap;rounded=0;" vertex="1" parent="1">
          <mxGeometry x="390" y="650" width="60" height="30" as="geometry" />
        </mxCell>
        <mxCell id="3TlZWHV6sP-muTXf7egh-30" style="edgeStyle=orthogonalEdgeStyle;rounded=0;orthogonalLoop=1;jettySize=auto;html=1;exitX=0;exitY=0.5;exitDx=0;exitDy=0;entryX=0;entryY=0.5;entryDx=0;entryDy=0;" edge="1" parent="1" source="3TlZWHV6sP-muTXf7egh-28" target="3TlZWHV6sP-muTXf7egh-19">
          <mxGeometry relative="1" as="geometry" />
        </mxCell>
        <mxCell id="3TlZWHV6sP-muTXf7egh-33" value="" style="edgeStyle=orthogonalEdgeStyle;rounded=0;orthogonalLoop=1;jettySize=auto;html=1;" edge="1" parent="1" source="3TlZWHV6sP-muTXf7egh-28" target="3TlZWHV6sP-muTXf7egh-32">
          <mxGeometry relative="1" as="geometry" />
        </mxCell>
        <mxCell id="3TlZWHV6sP-muTXf7egh-28" value="父目录存在?" style="rhombus;whiteSpace=wrap;html=1;rounded=1;" vertex="1" parent="1">
          <mxGeometry x="355" y="770" width="110" height="80" as="geometry" />
        </mxCell>
        <mxCell id="3TlZWHV6sP-muTXf7egh-31" value="存在" style="text;html=1;strokeColor=none;fillColor=none;align=center;verticalAlign=middle;whiteSpace=wrap;rounded=0;" vertex="1" parent="1">
          <mxGeometry x="280" y="740" width="55" height="30" as="geometry" />
        </mxCell>
        <mxCell id="3TlZWHV6sP-muTXf7egh-40" value="" style="edgeStyle=orthogonalEdgeStyle;rounded=0;orthogonalLoop=1;jettySize=auto;html=1;" edge="1" parent="1" source="3TlZWHV6sP-muTXf7egh-32" target="3TlZWHV6sP-muTXf7egh-39">
          <mxGeometry relative="1" as="geometry" />
        </mxCell>
        <mxCell id="3TlZWHV6sP-muTXf7egh-41" style="edgeStyle=orthogonalEdgeStyle;rounded=0;orthogonalLoop=1;jettySize=auto;html=1;exitX=1;exitY=0.5;exitDx=0;exitDy=0;entryX=1;entryY=0.5;entryDx=0;entryDy=0;" edge="1" parent="1" source="3TlZWHV6sP-muTXf7egh-32" target="3TlZWHV6sP-muTXf7egh-4">
          <mxGeometry relative="1" as="geometry" />
        </mxCell>
        <mxCell id="3TlZWHV6sP-muTXf7egh-32" value="模块在环境变量&lt;br&gt;node_path指定的&lt;br&gt;目录下吗?" style="rhombus;whiteSpace=wrap;html=1;rounded=1;" vertex="1" parent="1">
          <mxGeometry x="325" y="890" width="170" height="80" as="geometry" />
        </mxCell>
        <mxCell id="3TlZWHV6sP-muTXf7egh-34" value="不存在" style="text;html=1;strokeColor=none;fillColor=none;align=center;verticalAlign=middle;whiteSpace=wrap;rounded=0;" vertex="1" parent="1">
          <mxGeometry x="400" y="860" width="55" height="20" as="geometry" />
        </mxCell>
        <mxCell id="3TlZWHV6sP-muTXf7egh-39" value="抛出异常" style="whiteSpace=wrap;html=1;rounded=1;" vertex="1" parent="1">
          <mxGeometry x="350" y="1060" width="120" height="60" as="geometry" />
        </mxCell>
        <mxCell id="3TlZWHV6sP-muTXf7egh-42" value="在" style="text;html=1;strokeColor=none;fillColor=none;align=center;verticalAlign=middle;whiteSpace=wrap;rounded=0;" vertex="1" parent="1">
          <mxGeometry x="500" y="890" width="55" height="30" as="geometry" />
        </mxCell>
        <mxCell id="3TlZWHV6sP-muTXf7egh-43" value="不在" style="text;html=1;strokeColor=none;fillColor=none;align=center;verticalAlign=middle;whiteSpace=wrap;rounded=0;" vertex="1" parent="1">
          <mxGeometry x="415" y="1000" width="55" height="30" as="geometry" />
        </mxCell>
      </root>
    </mxGraphModel>
  </diagram>
</mxfile>
